<svg xmlns="http://www.w3.org/2000/svg" width="12.558" height="10.047" viewBox="0 0 12.558 10.047">
  <path id="Icon_awesome-user-edit" data-name="Icon awesome-user-edit" d="M4.4,5.024A2.512,2.512,0,1,0,1.884,2.512,2.512,2.512,0,0,0,4.4,5.024Zm1.758.628H5.826a3.416,3.416,0,0,1-2.861,0H2.637A2.638,2.638,0,0,0,0,8.289v.816a.942.942,0,0,0,.942.942H6.336a.942.942,0,0,1-.051-.418l.133-1.2.024-.218L6.6,8.061,8.114,6.544a2.611,2.611,0,0,0-1.96-.893ZM7.043,8.5,6.909,9.7a.312.312,0,0,0,.345.345l1.2-.133,2.706-2.706L9.749,5.8,7.043,8.5Zm5.379-3.226-.744-.744a.47.47,0,0,0-.663,0l-.742.742-.08.08L11.6,6.762l.82-.82a.473.473,0,0,0,0-.665Z" fill="#101010"/>
</svg>
